<?xml version="1.0" encoding="UTF-8" standalone="no"?><svg xmlns="http://www.w3.org/2000/svg" xmlns:xlink="http://www.w3.org/1999/xlink" contentScriptType="application/ecmascript" contentStyleType="text/css" height="1603px" preserveAspectRatio="none" style="width:431px;height:1603px;" version="1.1" viewBox="0 0 431 1603" width="431px" zoomAndPan="magnify"><defs><filter height="300%" id="f1eb10zxl4oayb" width="300%" x="-1" y="-1"><feGaussianBlur result="blurOut" stdDeviation="2.0"/><feColorMatrix in="blurOut" result="blurOut2" type="matrix" values="0 0 0 0 0 0 0 0 0 0 0 0 0 0 0 0 0 0 .4 0"/><feOffset dx="4.0" dy="4.0" in="blurOut2" result="blurOut3"/><feBlend in="SourceGraphic" in2="blurOut3" mode="normal"/></filter></defs><g><!--MD5=[db6d18d8099558415abc41d00477ab92]
class Admin--><rect codeLine="3" fill="#FEFECE" filter="url(#f1eb10zxl4oayb)" height="180.7109" id="Admin" style="stroke:#A80036;stroke-width:1.5;" width="141" x="166" y="7"/><ellipse cx="214.75" cy="27.0938" fill="#ADD1B2" rx="11" ry="11" style="stroke:#A80036;stroke-width:1.0;"/><path d="M217.5156,22.9688 Q217.6719,22.75 217.8594,22.6406 Q218.0469,22.5313 218.2656,22.5313 Q218.6406,22.5313 218.875,22.7891 Q219.1094,23.0469 219.1094,23.6563 L219.1094,25.1094 Q219.1094,25.7188 218.875,25.9844 Q218.6406,26.25 218.2656,26.25 Q217.9219,26.25 217.7188,26.0469 Q217.5156,25.8594 217.4063,25.3438 Q217.3594,24.9844 217.1719,24.7969 Q216.8438,24.4219 216.2344,24.2031 Q215.625,23.9844 215,23.9844 Q214.2344,23.9844 213.6016,24.3125 Q212.9688,24.6406 212.4766,25.3906 Q211.9844,26.1406 211.9844,27.1719 L211.9844,28.2656 Q211.9844,29.5 212.875,30.3203 Q213.7656,31.1406 215.3594,31.1406 Q216.2969,31.1406 216.9531,30.8906 Q217.3438,30.7344 217.7656,30.2969 Q218.0313,30.0313 218.1797,29.9531 Q218.3281,29.875 218.5313,29.875 Q218.8594,29.875 219.1172,30.1328 Q219.375,30.3906 219.375,30.7344 Q219.375,31.0781 219.0313,31.4844 Q218.5313,32.0625 217.7344,32.3906 Q216.6563,32.8438 215.3594,32.8438 Q213.8438,32.8438 212.6406,32.2188 Q211.6563,31.7188 210.9688,30.6484 Q210.2813,29.5781 210.2813,28.2969 L210.2813,27.1406 Q210.2813,25.8125 210.8984,24.6641 Q211.5156,23.5156 212.6094,22.8984 Q213.7031,22.2813 214.9375,22.2813 Q215.6719,22.2813 216.3203,22.4453 Q216.9688,22.6094 217.5156,22.9688 Z " fill="#000000"/><text fill="#000000" font-family="sans-serif" font-size="12" font-style="italic" lengthAdjust="spacing" textLength="30" x="237.75" y="24.457">«C1»</text><text fill="#000000" font-family="sans-serif" font-size="12" lengthAdjust="spacing" textLength="35" x="235.25" y="39.5508">Admin</text><line style="stroke:#A80036;stroke-width:1.5;" x1="167" x2="306" y1="47.1875" y2="47.1875"/><text fill="#000000" font-family="sans-serif" font-size="11" lengthAdjust="spacing" textLength="62" x="172" y="62.6064">+int admin_id</text><text fill="#000000" font-family="sans-serif" font-size="11" lengthAdjust="spacing" textLength="61" x="172" y="76.4424">+String email</text><text fill="#000000" font-family="sans-serif" font-size="11" lengthAdjust="spacing" textLength="87" x="172" y="90.2783">+String password</text><line style="stroke:#A80036;stroke-width:1.0;" x1="167" x2="306" y1="96.6953" y2="96.6953"/><text fill="#000000" font-family="sans-serif" font-size="11" lengthAdjust="spacing" textLength="36" x="172" y="112.1143">+login()</text><text fill="#000000" font-family="sans-serif" font-size="11" lengthAdjust="spacing" textLength="43" x="172" y="125.9502">+logout()</text><text fill="#000000" font-family="sans-serif" font-size="11" lengthAdjust="spacing" textLength="70" x="172" y="139.7861">+getAllUsers()</text><text fill="#000000" font-family="sans-serif" font-size="11" lengthAdjust="spacing" textLength="96" x="172" y="153.6221">+deleteUser(userId)</text><text fill="#000000" font-family="sans-serif" font-size="11" lengthAdjust="spacing" textLength="85" x="172" y="167.458">+getAllBookings()</text><text fill="#000000" font-family="sans-serif" font-size="11" lengthAdjust="spacing" textLength="129" x="172" y="181.2939">+cancelBooking(bookingId)</text><!--MD5=[3fd616f346a44cd59a91eb10b19e157c]
class User--><rect codeLine="16" fill="#FEFECE" filter="url(#f1eb10zxl4oayb)" height="166.875" id="User" style="stroke:#A80036;stroke-width:1.5;" width="100" x="126.5" y="266"/><ellipse cx="159.95" cy="286.0938" fill="#ADD1B2" rx="11" ry="11" style="stroke:#A80036;stroke-width:1.0;"/><path d="M162.7156,281.9688 Q162.8719,281.75 163.0594,281.6406 Q163.2469,281.5313 163.4656,281.5313 Q163.8406,281.5313 164.075,281.7891 Q164.3094,282.0469 164.3094,282.6563 L164.3094,284.1094 Q164.3094,284.7188 164.075,284.9844 Q163.8406,285.25 163.4656,285.25 Q163.1219,285.25 162.9188,285.0469 Q162.7156,284.8594 162.6063,284.3438 Q162.5594,283.9844 162.3719,283.7969 Q162.0438,283.4219 161.4344,283.2031 Q160.825,282.9844 160.2,282.9844 Q159.4344,282.9844 158.8016,283.3125 Q158.1688,283.6406 157.6766,284.3906 Q157.1844,285.1406 157.1844,286.1719 L157.1844,287.2656 Q157.1844,288.5 158.075,289.3203 Q158.9656,290.1406 160.5594,290.1406 Q161.4969,290.1406 162.1531,289.8906 Q162.5438,289.7344 162.9656,289.2969 Q163.2313,289.0313 163.3797,288.9531 Q163.5281,288.875 163.7313,288.875 Q164.0594,288.875 164.3172,289.1328 Q164.575,289.3906 164.575,289.7344 Q164.575,290.0781 164.2313,290.4844 Q163.7313,291.0625 162.9344,291.3906 Q161.8563,291.8438 160.5594,291.8438 Q159.0438,291.8438 157.8406,291.2188 Q156.8563,290.7188 156.1688,289.6484 Q155.4813,288.5781 155.4813,287.2969 L155.4813,286.1406 Q155.4813,284.8125 156.0984,283.6641 Q156.7156,282.5156 157.8094,281.8984 Q158.9031,281.2813 160.1375,281.2813 Q160.8719,281.2813 161.5203,281.4453 Q162.1688,281.6094 162.7156,281.9688 Z " fill="#000000"/><text fill="#000000" font-family="sans-serif" font-size="12" font-style="italic" lengthAdjust="spacing" textLength="30" x="176.55" y="283.457">«C2»</text><text fill="#000000" font-family="sans-serif" font-size="12" lengthAdjust="spacing" textLength="27" x="178.05" y="298.5508">User</text><line style="stroke:#A80036;stroke-width:1.5;" x1="127.5" x2="225.5" y1="306.1875" y2="306.1875"/><text fill="#000000" font-family="sans-serif" font-size="11" lengthAdjust="spacing" textLength="56" x="132.5" y="321.6064">+int user_id</text><text fill="#000000" font-family="sans-serif" font-size="11" lengthAdjust="spacing" textLength="61" x="132.5" y="335.4424">+String email</text><text fill="#000000" font-family="sans-serif" font-size="11" lengthAdjust="spacing" textLength="87" x="132.5" y="349.2783">+String password</text><text fill="#000000" font-family="sans-serif" font-size="11" lengthAdjust="spacing" textLength="88" x="132.5" y="363.1143">+String first_name</text><text fill="#000000" font-family="sans-serif" font-size="11" lengthAdjust="spacing" textLength="86" x="132.5" y="376.9502">+String last_name</text><line style="stroke:#A80036;stroke-width:1.0;" x1="127.5" x2="225.5" y1="383.3672" y2="383.3672"/><text fill="#000000" font-family="sans-serif" font-size="11" lengthAdjust="spacing" textLength="51" x="132.5" y="398.7861">+register()</text><text fill="#000000" font-family="sans-serif" font-size="11" lengthAdjust="spacing" textLength="36" x="132.5" y="412.6221">+login()</text><text fill="#000000" font-family="sans-serif" font-size="11" lengthAdjust="spacing" textLength="43" x="132.5" y="426.458">+logout()</text><!--MD5=[c6c2aa411a70f0170997fbec83374a43]
class Booking--><rect codeLine="28" fill="#FEFECE" filter="url(#f1eb10zxl4oayb)" height="153.0391" id="Booking" style="stroke:#A80036;stroke-width:1.5;" width="237" x="178" y="511"/><ellipse cx="269.75" cy="531.0938" fill="#ADD1B2" rx="11" ry="11" style="stroke:#A80036;stroke-width:1.0;"/><path d="M272.5156,526.9688 Q272.6719,526.75 272.8594,526.6406 Q273.0469,526.5313 273.2656,526.5313 Q273.6406,526.5313 273.875,526.7891 Q274.1094,527.0469 274.1094,527.6563 L274.1094,529.1094 Q274.1094,529.7188 273.875,529.9844 Q273.6406,530.25 273.2656,530.25 Q272.9219,530.25 272.7188,530.0469 Q272.5156,529.8594 272.4063,529.3438 Q272.3594,528.9844 272.1719,528.7969 Q271.8438,528.4219 271.2344,528.2031 Q270.625,527.9844 270,527.9844 Q269.2344,527.9844 268.6016,528.3125 Q267.9688,528.6406 267.4766,529.3906 Q266.9844,530.1406 266.9844,531.1719 L266.9844,532.2656 Q266.9844,533.5 267.875,534.3203 Q268.7656,535.1406 270.3594,535.1406 Q271.2969,535.1406 271.9531,534.8906 Q272.3438,534.7344 272.7656,534.2969 Q273.0313,534.0313 273.1797,533.9531 Q273.3281,533.875 273.5313,533.875 Q273.8594,533.875 274.1172,534.1328 Q274.375,534.3906 274.375,534.7344 Q274.375,535.0781 274.0313,535.4844 Q273.5313,536.0625 272.7344,536.3906 Q271.6563,536.8438 270.3594,536.8438 Q268.8438,536.8438 267.6406,536.2188 Q266.6563,535.7188 265.9688,534.6484 Q265.2813,533.5781 265.2813,532.2969 L265.2813,531.1406 Q265.2813,529.8125 265.8984,528.6641 Q266.5156,527.5156 267.6094,526.8984 Q268.7031,526.2813 269.9375,526.2813 Q270.6719,526.2813 271.3203,526.4453 Q271.9688,526.6094 272.5156,526.9688 Z " fill="#000000"/><text fill="#000000" font-family="sans-serif" font-size="12" font-style="italic" lengthAdjust="spacing" textLength="30" x="297.75" y="528.457">«C3»</text><text fill="#000000" font-family="sans-serif" font-size="12" lengthAdjust="spacing" textLength="45" x="290.25" y="543.5508">Booking</text><line style="stroke:#A80036;stroke-width:1.5;" x1="179" x2="414" y1="551.1875" y2="551.1875"/><text fill="#000000" font-family="sans-serif" font-size="11" lengthAdjust="spacing" textLength="71" x="184" y="566.6064">+int booking_id</text><text fill="#000000" font-family="sans-serif" font-size="11" lengthAdjust="spacing" textLength="74" x="184" y="580.4424">+DateTime date</text><text fill="#000000" font-family="sans-serif" font-size="11" lengthAdjust="spacing" textLength="80" x="184" y="594.2783">+float total_price</text><line style="stroke:#A80036;stroke-width:1.0;" x1="179" x2="414" y1="600.6953" y2="600.6953"/><text fill="#000000" font-family="sans-serif" font-size="11" lengthAdjust="spacing" textLength="225" x="184" y="616.1143">+createBooking(flightId, passengers, payment)</text><text fill="#000000" font-family="sans-serif" font-size="11" lengthAdjust="spacing" textLength="87" x="184" y="629.9502">+getMyBookings()</text><text fill="#000000" font-family="sans-serif" font-size="11" lengthAdjust="spacing" textLength="144" x="184" y="643.7861">+getBookingDetails(bookingId)</text><text fill="#000000" font-family="sans-serif" font-size="11" lengthAdjust="spacing" textLength="197" x="184" y="657.6221">+updateBookingStatus(bookingId, status)</text><!--MD5=[eb0e8f8ddfdc21c3fdb48447501fec67]
class Review--><rect codeLine="39" fill="#FEFECE" filter="url(#f1eb10zxl4oayb)" height="153.0391" id="Review" style="stroke:#A80036;stroke-width:1.5;" width="223" x="7" y="694"/><ellipse cx="94.25" cy="714.0938" fill="#ADD1B2" rx="11" ry="11" style="stroke:#A80036;stroke-width:1.0;"/><path d="M97.0156,709.9688 Q97.1719,709.75 97.3594,709.6406 Q97.5469,709.5313 97.7656,709.5313 Q98.1406,709.5313 98.375,709.7891 Q98.6094,710.0469 98.6094,710.6563 L98.6094,712.1094 Q98.6094,712.7188 98.375,712.9844 Q98.1406,713.25 97.7656,713.25 Q97.4219,713.25 97.2188,713.0469 Q97.0156,712.8594 96.9063,712.3438 Q96.8594,711.9844 96.6719,711.7969 Q96.3438,711.4219 95.7344,711.2031 Q95.125,710.9844 94.5,710.9844 Q93.7344,710.9844 93.1016,711.3125 Q92.4688,711.6406 91.9766,712.3906 Q91.4844,713.1406 91.4844,714.1719 L91.4844,715.2656 Q91.4844,716.5 92.375,717.3203 Q93.2656,718.1406 94.8594,718.1406 Q95.7969,718.1406 96.4531,717.8906 Q96.8438,717.7344 97.2656,717.2969 Q97.5313,717.0313 97.6797,716.9531 Q97.8281,716.875 98.0313,716.875 Q98.3594,716.875 98.6172,717.1328 Q98.875,717.3906 98.875,717.7344 Q98.875,718.0781 98.5313,718.4844 Q98.0313,719.0625 97.2344,719.3906 Q96.1563,719.8438 94.8594,719.8438 Q93.3438,719.8438 92.1406,719.2188 Q91.1563,718.7188 90.4688,717.6484 Q89.7813,716.5781 89.7813,715.2969 L89.7813,714.1406 Q89.7813,712.8125 90.3984,711.6641 Q91.0156,710.5156 92.1094,709.8984 Q93.2031,709.2813 94.4375,709.2813 Q95.1719,709.2813 95.8203,709.4453 Q96.4688,709.6094 97.0156,709.9688 Z " fill="#000000"/><text fill="#000000" font-family="sans-serif" font-size="12" font-style="italic" lengthAdjust="spacing" textLength="30" x="119.75" y="711.457">«C4»</text><text fill="#000000" font-family="sans-serif" font-size="12" lengthAdjust="spacing" textLength="40" x="114.75" y="726.5508">Review</text><line style="stroke:#A80036;stroke-width:1.5;" x1="8" x2="229" y1="734.1875" y2="734.1875"/><text fill="#000000" font-family="sans-serif" font-size="11" lengthAdjust="spacing" textLength="68" x="13" y="749.6064">+int review_id</text><text fill="#000000" font-family="sans-serif" font-size="11" lengthAdjust="spacing" textLength="57" x="13" y="763.4424">+float rating</text><text fill="#000000" font-family="sans-serif" font-size="11" lengthAdjust="spacing" textLength="80" x="13" y="777.2783">+String comment</text><text fill="#000000" font-family="sans-serif" font-size="11" lengthAdjust="spacing" textLength="105" x="13" y="791.1143">+DateTime created_at</text><line style="stroke:#A80036;stroke-width:1.0;" x1="8" x2="229" y1="797.5313" y2="797.5313"/><text fill="#000000" font-family="sans-serif" font-size="11" lengthAdjust="spacing" textLength="211" x="13" y="812.9502">+addReview(comment, rating, destinationId)</text><text fill="#000000" font-family="sans-serif" font-size="11" lengthAdjust="spacing" textLength="72" x="13" y="826.7861">+getReviews()</text><text fill="#000000" font-family="sans-serif" font-size="11" lengthAdjust="spacing" textLength="198" x="13" y="840.6221">+getReviewsByDestination(destinationId)</text><!--MD5=[bd6e5d4dd3d7814cbdc3148d3ed1ec4b]
class Flight--><rect codeLine="50" fill="#FEFECE" filter="url(#f1eb10zxl4oayb)" height="236.0547" id="Flight" style="stroke:#A80036;stroke-width:1.5;" width="237" x="180" y="877"/><ellipse cx="279.25" cy="897.0938" fill="#ADD1B2" rx="11" ry="11" style="stroke:#A80036;stroke-width:1.0;"/><path d="M282.0156,892.9688 Q282.1719,892.75 282.3594,892.6406 Q282.5469,892.5313 282.7656,892.5313 Q283.1406,892.5313 283.375,892.7891 Q283.6094,893.0469 283.6094,893.6563 L283.6094,895.1094 Q283.6094,895.7188 283.375,895.9844 Q283.1406,896.25 282.7656,896.25 Q282.4219,896.25 282.2188,896.0469 Q282.0156,895.8594 281.9063,895.3438 Q281.8594,894.9844 281.6719,894.7969 Q281.3438,894.4219 280.7344,894.2031 Q280.125,893.9844 279.5,893.9844 Q278.7344,893.9844 278.1016,894.3125 Q277.4688,894.6406 276.9766,895.3906 Q276.4844,896.1406 276.4844,897.1719 L276.4844,898.2656 Q276.4844,899.5 277.375,900.3203 Q278.2656,901.1406 279.8594,901.1406 Q280.7969,901.1406 281.4531,900.8906 Q281.8438,900.7344 282.2656,900.2969 Q282.5313,900.0313 282.6797,899.9531 Q282.8281,899.875 283.0313,899.875 Q283.3594,899.875 283.6172,900.1328 Q283.875,900.3906 283.875,900.7344 Q283.875,901.0781 283.5313,901.4844 Q283.0313,902.0625 282.2344,902.3906 Q281.1563,902.8438 279.8594,902.8438 Q278.3438,902.8438 277.1406,902.2188 Q276.1563,901.7188 275.4688,900.6484 Q274.7813,899.5781 274.7813,898.2969 L274.7813,897.1406 Q274.7813,895.8125 275.3984,894.6641 Q276.0156,893.5156 277.1094,892.8984 Q278.2031,892.2813 279.4375,892.2813 Q280.1719,892.2813 280.8203,892.4453 Q281.4688,892.6094 282.0156,892.9688 Z " fill="#000000"/><text fill="#000000" font-family="sans-serif" font-size="12" font-style="italic" lengthAdjust="spacing" textLength="30" x="299.75" y="894.457">«C5»</text><text fill="#000000" font-family="sans-serif" font-size="12" lengthAdjust="spacing" textLength="30" x="299.75" y="909.5508">Flight</text><line style="stroke:#A80036;stroke-width:1.5;" x1="181" x2="416" y1="917.1875" y2="917.1875"/><text fill="#000000" font-family="sans-serif" font-size="11" lengthAdjust="spacing" textLength="57" x="186" y="932.6064">+int flight_id</text><text fill="#000000" font-family="sans-serif" font-size="11" lengthAdjust="spacing" textLength="78" x="186" y="946.4424">+String flight_no</text><text fill="#000000" font-family="sans-serif" font-size="11" lengthAdjust="spacing" textLength="54" x="186" y="960.2783">+float price</text><text fill="#000000" font-family="sans-serif" font-size="11" lengthAdjust="spacing" textLength="84" x="186" y="974.1143">+String departure</text><text fill="#000000" font-family="sans-serif" font-size="11" lengthAdjust="spacing" textLength="97" x="186" y="987.9502">+String airline_name</text><text fill="#000000" font-family="sans-serif" font-size="11" lengthAdjust="spacing" textLength="107" x="186" y="1001.7861">+String departure_city</text><text fill="#000000" font-family="sans-serif" font-size="11" lengthAdjust="spacing" textLength="90" x="186" y="1015.6221">+String arrival_city</text><text fill="#000000" font-family="sans-serif" font-size="11" lengthAdjust="spacing" textLength="125" x="186" y="1029.458">+DateTime departure_time</text><text fill="#000000" font-family="sans-serif" font-size="11" lengthAdjust="spacing" textLength="108" x="186" y="1043.2939">+DateTime arrival_time</text><text fill="#000000" font-family="sans-serif" font-size="11" lengthAdjust="spacing" textLength="102" x="186" y="1057.1299">+int duration_minutes</text><line style="stroke:#A80036;stroke-width:1.0;" x1="181" x2="416" y1="1063.5469" y2="1063.5469"/><text fill="#000000" font-family="sans-serif" font-size="11" lengthAdjust="spacing" textLength="225" x="186" y="1078.9658">+searchFlights(departureCity, arrivalCity, date)</text><text fill="#000000" font-family="sans-serif" font-size="11" lengthAdjust="spacing" textLength="117" x="186" y="1092.8018">+getFlightDetails(flightId)</text><text fill="#000000" font-family="sans-serif" font-size="11" lengthAdjust="spacing" textLength="106" x="186" y="1106.6377">+renderFlights(flights)</text><!--MD5=[18a836c23c0e4d04592ec32f5657da5f]
class Destination--><rect codeLine="67" fill="#FEFECE" filter="url(#f1eb10zxl4oayb)" height="194.5469" id="Destination" style="stroke:#A80036;stroke-width:1.5;" width="186" x="51.5" y="1191"/><ellipse cx="108.75" cy="1211.0938" fill="#ADD1B2" rx="11" ry="11" style="stroke:#A80036;stroke-width:1.0;"/><path d="M111.5156,1206.9688 Q111.6719,1206.75 111.8594,1206.6406 Q112.0469,1206.5313 112.2656,1206.5313 Q112.6406,1206.5313 112.875,1206.7891 Q113.1094,1207.0469 113.1094,1207.6563 L113.1094,1209.1094 Q113.1094,1209.7188 112.875,1209.9844 Q112.6406,1210.25 112.2656,1210.25 Q111.9219,1210.25 111.7188,1210.0469 Q111.5156,1209.8594 111.4063,1209.3438 Q111.3594,1208.9844 111.1719,1208.7969 Q110.8438,1208.4219 110.2344,1208.2031 Q109.625,1207.9844 109,1207.9844 Q108.2344,1207.9844 107.6016,1208.3125 Q106.9688,1208.6406 106.4766,1209.3906 Q105.9844,1210.1406 105.9844,1211.1719 L105.9844,1212.2656 Q105.9844,1213.5 106.875,1214.3203 Q107.7656,1215.1406 109.3594,1215.1406 Q110.2969,1215.1406 110.9531,1214.8906 Q111.3438,1214.7344 111.7656,1214.2969 Q112.0313,1214.0313 112.1797,1213.9531 Q112.3281,1213.875 112.5313,1213.875 Q112.8594,1213.875 113.1172,1214.1328 Q113.375,1214.3906 113.375,1214.7344 Q113.375,1215.0781 113.0313,1215.4844 Q112.5313,1216.0625 111.7344,1216.3906 Q110.6563,1216.8438 109.3594,1216.8438 Q107.8438,1216.8438 106.6406,1216.2188 Q105.6563,1215.7188 104.9688,1214.6484 Q104.2813,1213.5781 104.2813,1212.2969 L104.2813,1211.1406 Q104.2813,1209.8125 104.8984,1208.6641 Q105.5156,1207.5156 106.6094,1206.8984 Q107.7031,1206.2813 108.9375,1206.2813 Q109.6719,1206.2813 110.3203,1206.4453 Q110.9688,1206.6094 111.5156,1206.9688 Z " fill="#000000"/><text fill="#000000" font-family="sans-serif" font-size="12" font-style="italic" lengthAdjust="spacing" textLength="30" x="145.75" y="1208.457">«C6»</text><text fill="#000000" font-family="sans-serif" font-size="12" lengthAdjust="spacing" textLength="63" x="129.25" y="1223.5508">Destination</text><line style="stroke:#A80036;stroke-width:1.5;" x1="52.5" x2="236.5" y1="1231.1875" y2="1231.1875"/><text fill="#000000" font-family="sans-serif" font-size="11" lengthAdjust="spacing" textLength="55" x="57.5" y="1246.6064">+int dest_id</text><text fill="#000000" font-family="sans-serif" font-size="11" lengthAdjust="spacing" textLength="63" x="57.5" y="1260.4424">+String name</text><text fill="#000000" font-family="sans-serif" font-size="11" lengthAdjust="spacing" textLength="74" x="57.5" y="1274.2783">+String country</text><text fill="#000000" font-family="sans-serif" font-size="11" lengthAdjust="spacing" textLength="83" x="57.5" y="1288.1143">+String image_url</text><text fill="#000000" font-family="sans-serif" font-size="11" lengthAdjust="spacing" textLength="90" x="57.5" y="1301.9502">+String description</text><text fill="#000000" font-family="sans-serif" font-size="11" lengthAdjust="spacing" textLength="51" x="57.5" y="1315.7861">+float cost</text><text fill="#000000" font-family="sans-serif" font-size="11" lengthAdjust="spacing" textLength="57" x="57.5" y="1329.6221">+float rating</text><line style="stroke:#A80036;stroke-width:1.0;" x1="52.5" x2="236.5" y1="1336.0391" y2="1336.0391"/><text fill="#000000" font-family="sans-serif" font-size="11" lengthAdjust="spacing" textLength="88" x="57.5" y="1351.458">+getDestinations()</text><text fill="#000000" font-family="sans-serif" font-size="11" lengthAdjust="spacing" textLength="174" x="57.5" y="1365.2939">+getDestinationDetails(destinationId)</text><text fill="#000000" font-family="sans-serif" font-size="11" lengthAdjust="spacing" textLength="142" x="57.5" y="1379.1299">+renderDestinations(country)</text><!--MD5=[ed4a1357f78ebd029670122cc7abb4ae]
class TopPlace--><rect codeLine="81" fill="#FEFECE" filter="url(#f1eb10zxl4oayb)" height="125.3672" id="TopPlace" style="stroke:#A80036;stroke-width:1.5;" width="151" x="69" y="1464"/><ellipse cx="114.25" cy="1484.0938" fill="#ADD1B2" rx="11" ry="11" style="stroke:#A80036;stroke-width:1.0;"/><path d="M117.0156,1479.9688 Q117.1719,1479.75 117.3594,1479.6406 Q117.5469,1479.5313 117.7656,1479.5313 Q118.1406,1479.5313 118.375,1479.7891 Q118.6094,1480.0469 118.6094,1480.6563 L118.6094,1482.1094 Q118.6094,1482.7188 118.375,1482.9844 Q118.1406,1483.25 117.7656,1483.25 Q117.4219,1483.25 117.2188,1483.0469 Q117.0156,1482.8594 116.9063,1482.3438 Q116.8594,1481.9844 116.6719,1481.7969 Q116.3438,1481.4219 115.7344,1481.2031 Q115.125,1480.9844 114.5,1480.9844 Q113.7344,1480.9844 113.1016,1481.3125 Q112.4688,1481.6406 111.9766,1482.3906 Q111.4844,1483.1406 111.4844,1484.1719 L111.4844,1485.2656 Q111.4844,1486.5 112.375,1487.3203 Q113.2656,1488.1406 114.8594,1488.1406 Q115.7969,1488.1406 116.4531,1487.8906 Q116.8438,1487.7344 117.2656,1487.2969 Q117.5313,1487.0313 117.6797,1486.9531 Q117.8281,1486.875 118.0313,1486.875 Q118.3594,1486.875 118.6172,1487.1328 Q118.875,1487.3906 118.875,1487.7344 Q118.875,1488.0781 118.5313,1488.4844 Q118.0313,1489.0625 117.2344,1489.3906 Q116.1563,1489.8438 114.8594,1489.8438 Q113.3438,1489.8438 112.1406,1489.2188 Q111.1563,1488.7188 110.4688,1487.6484 Q109.7813,1486.5781 109.7813,1485.2969 L109.7813,1484.1406 Q109.7813,1482.8125 110.3984,1481.6641 Q111.0156,1480.5156 112.1094,1479.8984 Q113.2031,1479.2813 114.4375,1479.2813 Q115.1719,1479.2813 115.8203,1479.4453 Q116.4688,1479.6094 117.0156,1479.9688 Z " fill="#000000"/><text fill="#000000" font-family="sans-serif" font-size="12" font-style="italic" lengthAdjust="spacing" textLength="30" x="145.75" y="1481.457">«C7»</text><text fill="#000000" font-family="sans-serif" font-size="12" lengthAdjust="spacing" textLength="52" x="134.75" y="1496.5508">TopPlace</text><line style="stroke:#A80036;stroke-width:1.5;" x1="70" x2="219" y1="1504.1875" y2="1504.1875"/><text fill="#000000" font-family="sans-serif" font-size="11" lengthAdjust="spacing" textLength="28" x="75" y="1519.6064">+int id</text><text fill="#000000" font-family="sans-serif" font-size="11" lengthAdjust="spacing" textLength="89" x="75" y="1533.4424">+int photo_number</text><text fill="#000000" font-family="sans-serif" font-size="11" lengthAdjust="spacing" textLength="83" x="75" y="1547.2783">+String image_url</text><text fill="#000000" font-family="sans-serif" font-size="11" lengthAdjust="spacing" textLength="72" x="75" y="1561.1143">+String caption</text><line style="stroke:#A80036;stroke-width:1.0;" x1="70" x2="219" y1="1567.5313" y2="1567.5313"/><text fill="#000000" font-family="sans-serif" font-size="11" lengthAdjust="spacing" textLength="139" x="75" y="1582.9502">+getTopPlaces(destinationId)</text><!--MD5=[478425156ee10c55cac736d5b0b47b37]
link Admin to User--><path codeLine="90" d="M215.01,188.05 C209.33,211.72 203.2,237.25 197.54,260.82 " fill="none" id="Admin-to-User" style="stroke:#A80036;stroke-width:1.0;stroke-dasharray:7.0,7.0;"/><polygon fill="#A80036" points="196.34,265.82,202.3386,258.0087,197.5123,260.9594,194.5616,256.133,196.34,265.82" style="stroke:#A80036;stroke-width:1.0;"/><polygon fill="#000000" points="210.3328,232.0376,215.302,223.9285,209.5866,222.5564,210.3328,232.0376" style="stroke:#000000;stroke-width:1.0;"/><text fill="#000000" font-family="sans-serif" font-size="13" lengthAdjust="spacing" textLength="42" x="220.5" y="232.4951">deletes</text><text fill="#000000" font-family="sans-serif" font-size="13" lengthAdjust="spacing" textLength="7" x="206.0967" y="209.1149">1</text><text fill="#000000" font-family="sans-serif" font-size="13" lengthAdjust="spacing" textLength="20" x="177.2164" y="255.1711">0..*</text><!--MD5=[260d2c36908dce664a60b03667436987]
link Admin to Booking--><path codeLine="91" d="M264.99,188.05 C267.51,198.08 269.76,208.21 271.5,218 C288.94,315.87 294.42,430.34 296.04,505.42 " fill="none" id="Admin-to-Booking" style="stroke:#A80036;stroke-width:1.0;stroke-dasharray:7.0,7.0;"/><polygon fill="#A80036" points="296.15,510.75,299.9692,501.6718,296.05,505.751,291.9708,501.8318,296.15,510.75" style="stroke:#A80036;stroke-width:1.0;"/><polygon fill="#000000" points="298.9869,354.652,301.0311,345.3638,295.1812,345.9361,298.9869,354.652" style="stroke:#000000;stroke-width:1.0;"/><text fill="#000000" font-family="sans-serif" font-size="13" lengthAdjust="spacing" textLength="45" x="307.5" y="354.9951">cancels</text><text fill="#000000" font-family="sans-serif" font-size="13" lengthAdjust="spacing" textLength="7" x="259.9033" y="209.1149">1</text><text fill="#000000" font-family="sans-serif" font-size="13" lengthAdjust="spacing" textLength="20" x="275.1635" y="500.1823">0..*</text><!--MD5=[daac21dc2e4f61efbbad4fa01ed3e5bc]
link User to Booking--><path codeLine="93" d="M197.08,433.34 C202.43,449.55 208.89,466.13 216.5,481 C220.83,489.46 225.85,497.94 231.22,506.21 " fill="none" id="User-to-Booking" style="stroke:#A80036;stroke-width:1.0;"/><polygon fill="#A80036" points="234.24,510.78,232.6144,501.0662,231.483,506.6088,225.9404,505.4774,234.24,510.78" style="stroke:#A80036;stroke-width:1.0;"/><polygon fill="#000000" points="223.6213,476.7035,222.4452,467.2659,217.1225,469.7596,223.6213,476.7035" style="stroke:#000000;stroke-width:1.0;"/><text fill="#000000" font-family="sans-serif" font-size="13" lengthAdjust="spacing" textLength="39" x="230.5" y="477.4951">makes</text><text fill="#000000" font-family="sans-serif" font-size="13" lengthAdjust="spacing" textLength="7" x="191.4944" y="454.4603">1</text><text fill="#000000" font-family="sans-serif" font-size="13" lengthAdjust="spacing" textLength="20" x="207.3527" y="500.2151">0..*</text><!--MD5=[6415063213547b35a52066d7b53eb916]
link User to Review--><path codeLine="94" d="M157.87,433.26 C155.91,443.26 154.06,453.34 152.5,463 C140.18,539.21 130.95,626.81 125.24,688.79 " fill="none" id="User-to-Review" style="stroke:#A80036;stroke-width:1.0;"/><polygon fill="#A80036" points="124.77,693.96,129.5773,685.3641,125.2278,688.981,121.6109,684.6315,124.77,693.96" style="stroke:#A80036;stroke-width:1.0;"/><polygon fill="#000000" points="156.8667,477.1355,160.9276,468.5355,155.0971,467.791,156.8667,477.1355" style="stroke:#000000;stroke-width:1.0;"/><text fill="#000000" font-family="sans-serif" font-size="13" lengthAdjust="spacing" textLength="34" x="166.5" y="477.4951">writes</text><text fill="#000000" font-family="sans-serif" font-size="13" lengthAdjust="spacing" textLength="7" x="149.0374" y="454.3737">1</text><text fill="#000000" font-family="sans-serif" font-size="13" lengthAdjust="spacing" textLength="20" x="104.4028" y="683.1486">0..*</text><!--MD5=[c1d051e32d7e31fb60a610d2b664aa06]
link Booking to Flight--><path codeLine="96" d="M296.87,664.3 C297.16,722.49 297.56,804.05 297.9,871.48 " fill="none" id="Booking-to-Flight" style="stroke:#A80036;stroke-width:1.0;"/><polygon fill="#A80036" points="297.92,876.72,301.8685,867.6973,297.8914,871.7201,293.8686,867.743,297.92,876.72" style="stroke:#A80036;stroke-width:1.0;"/><polygon fill="#000000" points="303.5249,775.6757,306.4188,766.6161,300.541,766.6454,303.5249,775.6757" style="stroke:#000000;stroke-width:1.0;"/><text fill="#000000" font-family="sans-serif" font-size="13" lengthAdjust="spacing" textLength="14" x="312.5" y="775.9951">for</text><text fill="#000000" font-family="sans-serif" font-size="13" lengthAdjust="spacing" textLength="20" x="275.9822" y="685.627">0..*</text><text fill="#000000" font-family="sans-serif" font-size="13" lengthAdjust="spacing" textLength="7" x="290.6586" y="866.1348">1</text><!--MD5=[c402297e03137fdc67259bd10b91abdc]
link Flight to Destination--><path codeLine="98" d="M236.53,1113.3 C223.76,1137.48 210.41,1162.74 197.97,1186.29 " fill="none" id="Flight-to-Destination" style="stroke:#A80036;stroke-width:1.0;"/><polygon fill="#A80036" points="195.5,1190.97,203.2443,1184.8852,197.8381,1186.5504,196.1729,1181.1442,195.5,1190.97" style="stroke:#A80036;stroke-width:1.0;"/><polygon fill="#000000" points="220.1644,1156.5968,226.9881,1149.9719,221.7909,1147.2263,220.1644,1156.5968" style="stroke:#000000;stroke-width:1.0;"/><text fill="#000000" font-family="sans-serif" font-size="13" lengthAdjust="spacing" textLength="38" x="231.5" y="1157.4951">flies to</text><text fill="#000000" font-family="sans-serif" font-size="13" lengthAdjust="spacing" textLength="20" x="212.1443" y="1134.5006">0..*</text><text fill="#000000" font-family="sans-serif" font-size="13" lengthAdjust="spacing" textLength="7" x="192.2852" y="1180.0878">1</text><!--MD5=[436e99db177462e41df12d73d0f3dae0]
link Review to Destination--><path codeLine="100" d="M121.41,847.14 C124.17,916.35 128.61,1021.59 133.5,1113 C134.76,1136.49 136.26,1161.74 137.75,1185.55 " fill="none" id="Review-to-Destination" style="stroke:#A80036;stroke-width:1.0;"/><polygon fill="#A80036" points="138.06,1190.6,141.4875,1181.3668,137.7463,1185.6098,133.5033,1181.8687,138.06,1190.6" style="stroke:#A80036;stroke-width:1.0;"/><polygon fill="#000000" points="138.7411,1000.17,141.2404,990.9937,135.3694,991.2771,138.7411,1000.17" style="stroke:#000000;stroke-width:1.0;"/><text fill="#000000" font-family="sans-serif" font-size="13" lengthAdjust="spacing" textLength="14" x="147.5" y="1000.4951">for</text><text fill="#000000" font-family="sans-serif" font-size="13" lengthAdjust="spacing" textLength="20" x="100.7564" y="868.4523">0..*</text><text fill="#000000" font-family="sans-serif" font-size="13" lengthAdjust="spacing" textLength="7" x="130.299" y="1180.018">1</text><!--MD5=[402d0a8bdfef1a3a22bb3ba36e67b9ef]
link Destination to TopPlace--><path codeLine="102" d="M144.5,1398.17 C144.5,1398.17 144.5,1434.24 144.5,1450.48 " fill="none" id="Destination-TopPlace" style="stroke:#A80036;stroke-width:1.0;"/><polygon fill="#A80036" points="144.5,1463.79,148.5,1454.79,144.5,1458.79,140.5,1454.79,144.5,1463.79" style="stroke:#A80036;stroke-width:1.0;"/><line style="stroke:#A80036;stroke-width:1.0;" x1="144.5" x2="144.5" y1="1458.79" y2="1450.79"/><polygon fill="#A80036" points="144.5,1386.17,140.5,1392.17,144.5,1398.17,148.5,1392.17,144.5,1386.17" style="stroke:#A80036;stroke-width:1.0;"/><polygon fill="#000000" points="149.5,1430.1758,152.4389,1421.1307,146.5611,1421.1307,149.5,1430.1758" style="stroke:#000000;stroke-width:1.0;"/><text fill="#000000" font-family="sans-serif" font-size="13" lengthAdjust="spacing" textLength="21" x="158.5" y="1430.4951">has</text><text fill="#000000" font-family="sans-serif" font-size="13" lengthAdjust="spacing" textLength="7" x="137.2539" y="1407.1233">1</text><text fill="#000000" font-family="sans-serif" font-size="13" lengthAdjust="spacing" textLength="20" x="123.3438" y="1453.1084">1..*</text><!--MD5=[2bfcf22f1656588e60aa6ebde740b47f]
@startuml
skinparam classAttributeIconSize 0

class Admin <<C1>> {
  +int admin_id
  +String email
  +String password
  - -
  +login()
  +logout()
  +getAllUsers()
  +deleteUser(userId)
  +getAllBookings()
  +cancelBooking(bookingId)
}

class User <<C2>> {
  +int user_id
  +String email
  +String password
  +String first_name
  +String last_name
  - -
  +register()
  +login()
  +logout()
}

class Booking <<C3>> {
  +int booking_id
  +DateTime date
  +float total_price
  - -
  +createBooking(flightId, passengers, payment)
  +getMyBookings()
  +getBookingDetails(bookingId)
  +updateBookingStatus(bookingId, status)
}

class Review <<C4>> {
  +int review_id
  +float rating
  +String comment
  +DateTime created_at
  - -
  +addReview(comment, rating, destinationId)
  +getReviews()
  +getReviewsByDestination(destinationId)
}

class Flight <<C5>> {
  +int flight_id
  +String flight_no
  +float price
  +String departure
  +String airline_name
  +String departure_city
  +String arrival_city
  +DateTime departure_time
  +DateTime arrival_time
  +int duration_minutes
  - -
  +searchFlights(departureCity, arrivalCity, date)
  +getFlightDetails(flightId)
  +renderFlights(flights)
}

class Destination <<C6>> {
  +int dest_id
  +String name
  +String country
  +String image_url
  +String description
  +float cost
  +float rating
  - -
  +getDestinations()
  +getDestinationDetails(destinationId)
  +renderDestinations(country)
}

class TopPlace <<C7>> {
  +int id
  +int photo_number
  +String image_url
  +String caption
  - -
  +getTopPlaces(destinationId)
}

Admin "1" ..> "0..*" User : deletes >
Admin "1" ..> "0..*" Booking : cancels >

User "1" - -> "0..*" Booking : makes >
User "1" - -> "0..*" Review : writes >

Booking "0..*" - -> "1" Flight : for >

Flight "0..*" - -> "1" Destination : flies to >

Review "0..*" - -> "1" Destination : for >

Destination "1" *- -> "1..*" TopPlace : has >

@enduml

PlantUML version 1.2021.00(Sun Jan 10 12:25:05 EET 2021)
(MIT source distribution)
Java Runtime: Java(TM) SE Runtime Environment
JVM: Java HotSpot(TM) 64-Bit Server VM
Default Encoding: Cp1256
Language: en
Country: US
--></g></svg>